<!--<svg xmlns="http://www.w3.org/2000/svg" version="1.1" xmlns:xlink="http://www.w3.org/1999/xlink" xmlns:svgjs="http://svgjs.dev/svgjs" width="1440" height="560" preserveAspectRatio="none" viewBox="0 0 1440 560">-->
<!--    <g mask="url(&quot;#SvgjsMask1050&quot;)" fill="none">-->
<!--        <rect width="1440" height="560" x="0" y="0" fill="#0e2a47"></rect>-->
<!--        <path d="M617.753,19.558C633.722,20.969,650.33,14.995,658.77,1.366C667.609,-12.907,667.598,-31.765,658.115,-45.618C649.562,-58.114,632.891,-58.931,617.753,-58.557C603.496,-58.205,587.683,-56.142,580.699,-43.708C573.805,-31.435,580.511,-17.068,587.625,-4.921C594.634,7.046,603.938,18.337,617.753,19.558" fill="rgba(28, 83, 142, 0.4)" class="triangle-float2"></path>-->
<!--        <path d="M1071.1605948237845 199.10791879514755L1232.3954815694933 185.00169404001176 1218.2892568143575 23.766807294302964 1057.0543700686487 37.87303204943876z" fill="rgba(28, 83, 142, 0.4)" class="triangle-float3"></path>-->
<!--        <path d="M567.733,353.307C614.97,349.991,640.434,302.419,662.254,260.393C681.785,222.776,695.088,181.058,677.086,142.686C656.184,98.134,616.943,59.332,567.733,58.925C518.006,58.514,479.413,97.413,455.206,140.853C431.748,182.95,424.492,232.911,447.049,275.498C471.061,320.833,516.558,356.899,567.733,353.307" fill="rgba(28, 83, 142, 0.4)" class="triangle-float3"></path>-->
<!--        <path d="M363.221,604.688C414.744,608.253,460.303,574.213,486.985,529.993C514.678,484.098,526.542,426.119,498.554,380.403C471.471,336.166,415.056,325.954,363.221,327.836C315.243,329.578,266.068,347.061,243.9,389.647C222.953,429.886,243.937,475.03,265.948,514.698C288.918,556.095,315.991,601.42,363.221,604.688" fill="rgba(28, 83, 142, 0.4)" class="triangle-float3"></path>-->
<!--        <path d="M813.532,471.236C852.834,471.256,889.701,450.431,908.673,416.012C927.044,382.683,922.897,341.852,902.594,309.663C883.619,279.579,849.1,265.207,813.532,265.174C777.9,265.141,743.181,279.352,724.187,309.499C703.892,341.711,700.148,382.591,718.557,415.916C737.545,450.288,774.264,471.216,813.532,471.236" fill="rgba(28, 83, 142, 0.4)" class="triangle-float2"></path>-->
<!--        <path d="M1241.034,184.274C1281.035,184.928,1315.981,160.892,1337.267,127.019C1360.218,90.497,1373.897,44.558,1352.297,7.221C1330.72,-30.076,1284.121,-38.897,1241.034,-39.329C1196.944,-39.771,1147.288,-33.573,1125.836,4.949C1104.724,42.86,1126.65,87.449,1150.103,123.958C1171.173,156.757,1202.055,183.637,1241.034,184.274" fill="rgba(28, 83, 142, 0.4)" class="triangle-float3"></path>-->
<!--        <path d="M1397.433,534.202C1433.846,532.897,1457.786,500.019,1474.871,467.837C1490.637,438.141,1498.84,403.4,1482.467,374.034C1465.722,344,1431.791,327.533,1397.433,328.942C1365.301,330.26,1340.336,353.038,1323.679,380.547C1306.239,409.348,1295.177,443.401,1309.747,473.755C1326.212,508.058,1359.407,535.565,1397.433,534.202" fill="rgba(28, 83, 142, 0.4)" class="triangle-float3"></path>-->
<!--        <path d="M921.226,262.4C937.967,263.058,956.312,259.746,964.92,245.373C973.699,230.715,968.715,212.455,959.909,197.813C951.419,183.697,937.692,173.176,921.226,172.726C903.982,172.255,887.005,180.475,878.703,195.596C870.662,210.242,874.133,228.061,883.105,242.156C891.386,255.165,905.817,261.794,921.226,262.4" fill="rgba(28, 83, 142, 0.4)" class="triangle-float3"></path>-->
<!--        <path d="M255.586,430.49C304.947,431.436,346.575,398.136,371.774,355.682C397.589,312.191,408.276,258.836,383.716,214.625C358.542,169.308,307.419,147.35,255.586,146.525C202.103,145.673,145.265,163.181,120.189,210.429C96.164,255.696,120.011,307.723,146.866,351.37C172.039,392.284,207.557,429.569,255.586,430.49" fill="rgba(28, 83, 142, 0.4)" class="triangle-float1"></path>-->
<!--        <path d="M1467.364,738.775C1520.454,736.759,1562.773,698.79,1588.249,652.169C1612.565,607.671,1618.792,553.478,1592.22,510.29C1566.708,468.825,1516.047,456.082,1467.364,455.692C1417.808,455.295,1366.537,467.062,1338.996,508.263C1308.415,554.012,1302.683,613.92,1329.456,661.997C1356.892,711.264,1411.014,740.915,1467.364,738.775" fill="rgba(28, 83, 142, 0.4)" class="triangle-float2"></path>-->
<!--        <path d="M975.787,628.653C1010.563,627.342,1034.994,598.579,1052.329,568.402C1069.577,538.376,1081.119,503.317,1065.554,472.384C1048.555,438.602,1013.598,415.571,975.787,416.288C939.023,416.985,909.474,443.474,891.726,475.678C874.663,506.639,871.528,543.595,888.553,574.576C906.212,606.712,939.145,630.034,975.787,628.653" fill="rgba(28, 83, 142, 0.4)" class="triangle-float2"></path>-->
<!--        <path d="M-13.850698879609336 183.79442080170978L32.04507428223556 343.85200303757324 192.102656518099 297.95622987572835 146.2068833562541 137.8986476398649z" fill="rgba(28, 83, 142, 0.4)" class="triangle-float2"></path>-->
<!--    </g>-->
<!--    <defs>-->
<!--        <mask id="SvgjsMask1050">-->
<!--            <rect width="1440" height="560" fill="#ffffff"></rect>-->
<!--        </mask>-->
<!--        <style>-->
<!--            @keyframes float1 {-->
<!--            0%{transform: translate(0, 0)}-->
<!--            50%{transform: translate(-10px, 0)}-->
<!--            100%{transform: translate(0, 0)}-->
<!--            }-->

<!--            .triangle-float1 {-->
<!--            animation: float1 5s infinite;-->
<!--            }-->

<!--            @keyframes float2 {-->
<!--            0%{transform: translate(0, 0)}-->
<!--            50%{transform: translate(-5px, -5px)}-->
<!--            100%{transform: translate(0, 0)}-->
<!--            }-->

<!--            .triangle-float2 {-->
<!--            animation: float2 4s infinite;-->
<!--            }-->

<!--            @keyframes float3 {-->
<!--            0%{transform: translate(0, 0)}-->
<!--            50%{transform: translate(0, -10px)}-->
<!--            100%{transform: translate(0, 0)}-->
<!--            }-->

<!--            .triangle-float3 {-->
<!--            animation: float3 6s infinite;-->
<!--            }-->
<!--        </style>-->
<!--    </defs>-->
<!--</svg>-->

<svg xmlns="http://www.w3.org/2000/svg" version="1.1" xmlns:xlink="http://www.w3.org/1999/xlink" xmlns:svgjs="http://svgjs.dev/svgjs" width="1440" height="560" preserveAspectRatio="none" viewBox="0 0 1440 560">
    <g mask="url(&quot;#SvgjsMask1315&quot;)" fill="none">
        <rect width="1440" height="560" x="0" y="0" fill="rgba(50, 52, 72, 1)"></rect>
        <path d="M-61.95 248.36 a166.01 166.01 0 1 0 332.02 0 a166.01 166.01 0 1 0 -332.02 0z" fill="rgba(83, 87, 130, 0.4)" class="triangle-float1"></path>
        <path d="M1353.579,304.536C1370.961,306.019,1389.9,298.979,1397.551,283.301C1404.66,268.733,1394.603,252.869,1385.256,239.625C1377.686,228.899,1366.688,221.713,1353.579,220.999C1338.938,220.202,1322.714,223.163,1315.306,235.817C1307.846,248.56,1313.747,263.863,1320.932,276.763C1328.383,290.141,1338.321,303.234,1353.579,304.536" fill="rgba(83, 87, 130, 0.4)" class="triangle-float1"></path>
        <path d="M980.08 307.63 a118 118 0 1 0 236 0 a118 118 0 1 0 -236 0z" fill="rgba(83, 87, 130, 0.4)" class="triangle-float2"></path>
        <path d="M1142.43 345.21 a108.4 108.4 0 1 0 216.8 0 a108.4 108.4 0 1 0 -216.8 0z" fill="rgba(83, 87, 130, 0.4)" class="triangle-float2"></path>
        <path d="M341.24,480.914C356.649,480.631,366.739,466.915,374.75,453.749C383.23,439.811,392.135,423.822,384.863,409.217C377.027,393.48,358.818,386.174,341.24,386.452C324.158,386.722,307.833,395.407,299.941,410.559C292.545,424.759,297.422,441.214,305.527,455.021C313.505,468.612,325.483,481.204,341.24,480.914" fill="rgba(83, 87, 130, 0.4)" class="triangle-float3"></path>
        <path d="M94.11 263.3 a110.97 110.97 0 1 0 221.94 0 a110.97 110.97 0 1 0 -221.94 0z" fill="rgba(83, 87, 130, 0.4)" class="triangle-float1"></path>
        <path d="M621.41 412.59 a146.93 146.93 0 1 0 293.86 0 a146.93 146.93 0 1 0 -293.86 0z" fill="rgba(83, 87, 130, 0.4)" class="triangle-float1"></path>
        <path d="M1186.554,298.566C1209.813,298.713,1228.501,282.07,1240.528,262.162C1253.073,241.395,1260.687,216.201,1249.233,194.813C1237.251,172.439,1211.929,160.861,1186.554,161.377C1162.063,161.875,1139.566,175.607,1128.138,197.274C1117.395,217.642,1122.249,241.537,1133.753,261.485C1145.269,281.453,1163.503,298.42,1186.554,298.566" fill="rgba(83, 87, 130, 0.4)" class="triangle-float1"></path>
        <path d="M1463.967,583.14C1501.172,580.512,1521.095,543.804,1540.109,511.716C1559.708,478.641,1586.648,441.315,1567.895,407.753C1548.929,373.809,1502.834,374.318,1463.967,375.445C1427.756,376.495,1389.839,383.195,1369.978,413.491C1348.328,446.516,1347.465,489.427,1366.602,523.969C1386.328,559.575,1423.363,586.008,1463.967,583.14" fill="rgba(83, 87, 130, 0.4)" class="triangle-float2"></path>
        <path d="M447.41 196.69 a97.9 97.9 0 1 0 195.8 0 a97.9 97.9 0 1 0 -195.8 0z" fill="rgba(83, 87, 130, 0.4)" class="triangle-float2"></path>
    </g>
    <defs>
        <mask id="SvgjsMask1315">
            <rect width="1440" height="560" fill="#ffffff"></rect>
        </mask>
        <style>
            @keyframes float1 {
            0%{transform: translate(0, 0)}
            50%{transform: translate(-10px, 0)}
            100%{transform: translate(0, 0)}
            }

            .triangle-float1 {
            animation: float1 5s infinite;
            }

            @keyframes float2 {
            0%{transform: translate(0, 0)}
            50%{transform: translate(-5px, -5px)}
            100%{transform: translate(0, 0)}
            }

            .triangle-float2 {
            animation: float2 4s infinite;
            }

            @keyframes float3 {
            0%{transform: translate(0, 0)}
            50%{transform: translate(0, -10px)}
            100%{transform: translate(0, 0)}
            }

            .triangle-float3 {
            animation: float3 6s infinite;
            }
        </style>
    </defs>
</svg>
