<!--<svg xmlns="http://www.w3.org/2000/svg" version="1.1" xmlns:xlink="http://www.w3.org/1999/xlink" xmlns:svgjs="http://svgjs.dev/svgjs" width="1440" height="560" preserveAspectRatio="none" viewBox="0 0 1440 560">-->
<!--    <g mask="url(&quot;#SvgjsMask1009&quot;)" fill="none">-->
<!--        <rect width="1440" height="560" x="0" y="0" fill="rgba(43, 45, 66, 1)"></rect>-->
<!--        <path d="M0,545.675C101.987,538.597,188.882,482.393,279.036,434.189C377.212,381.696,486.459,342.489,550.425,251.371C620.537,151.499,659.3,28.254,649.388,-93.368C639.181,-218.618,592.038,-349.079,494.986,-428.908C401.727,-505.617,267.566,-485.856,148.411,-505.44C45.221,-522.4,-59.782,-573.581,-157.424,-536.138C-253.402,-499.333,-281.249,-378.363,-358.832,-310.929C-454.825,-227.494,-618.377,-214.103,-664.357,-95.52C-709.952,22.071,-649.775,159.331,-582.547,266.04C-519.584,365.979,-411.576,423.615,-305.09,474.73C-209.016,520.847,-106.313,553.054,0,545.675" fill="#222435"></path>-->
<!--        <path d="M1440 1027.583C1530.111 1025.6100000000001 1623.106 1011.261 1695.507 957.576 1765.8609999999999 905.409 1791.221 816.63 1830.246 738.219 1870.734 656.8679999999999 1926.451 580.641 1928.321 489.79 1930.357 390.901 1898.8690000000001 292.735 1841.069 212.471 1780.149 127.875 1695.686 59.206999999999994 1596.083 28.43100000000004 1495.768-2.5639999999999645 1381.596-5.586999999999989 1287.757 41.50800000000004 1198.782 86.16199999999998 1157.722 186.305 1108.779 272.995 1068.37 344.568 1051.987 422.081 1028.435 500.826 1000.2850000000001 594.947 927.209 686.968 956.9639999999999 780.595 986.825 874.554 1089.4189999999999 924.0419999999999 1177.199 968.9259999999999 1258.766 1010.633 1348.411 1029.589 1440 1027.583" fill="#34364f"></path>-->
<!--    </g>-->
<!--    <defs>-->
<!--        <mask id="SvgjsMask1009">-->
<!--            <rect width="1440" height="560" fill="#ffffff"></rect>-->
<!--        </mask>-->
<!--    </defs>-->
<!--</svg>-->
<svg xmlns="http://www.w3.org/2000/svg" version="1.1" xmlns:xlink="http://www.w3.org/1999/xlink" xmlns:svgjs="http://svgjs.dev/svgjs" width="1440" height="560" preserveAspectRatio="none" viewBox="0 0 1440 560">
    <g mask="url(&quot;#SvgjsMask1010&quot;)" fill="none">
        <rect width="1440" height="560" x="0" y="0" fill="rgba(47, 49, 70, 1)"></rect>
        <path d="M0,322.298C67.966,321.083,136.673,336.432,199.442,310.338C268.952,281.441,326.974,230.874,369.437,168.716C417.394,98.516,478.465,16.466,456.262,-65.601C433.826,-148.531,329.671,-173.975,262.301,-227.285C208.976,-269.481,164.055,-319.178,101.654,-346.202C32.712,-376.059,-42.614,-411.8,-114.674,-390.543C-186.719,-369.29,-218.465,-288.34,-272.246,-235.902C-332.216,-177.431,-445.715,-148.25,-449.012,-64.558C-452.415,21.823,-333.35,58.151,-286.698,130.93C-249.226,189.388,-261.831,279.001,-204.078,317.551C-146.313,356.108,-69.44,323.539,0,322.298" fill="#262738"></path>
        <path d="M1440 1171.249C1555.063 1162.9569999999999 1580.741 992.357 1676.967 928.7280000000001 1771.152 866.448 1930.634 907.673 1986.768 809.701 2041.772 713.701 1956.2559999999999 596.864 1928.474 489.76800000000003 1903.962 395.276 1899.19 291.243 1833.534 219.00099999999998 1768.4470000000001 147.385 1667.496 128.70499999999998 1574.866 100.69 1481.486 72.44799999999998 1388.784 44.94399999999996 1291.762 55.14699999999999 1180.74 66.822 1055.0819999999999 78.75299999999999 981.8910000000001 163.046 908.693 247.348 927.849 373.767 918.507 485.021 909.723 589.626 878.703 701.2239999999999 928.962 793.383 978.457 884.1410000000001 1096.894 903.081 1180.016 964.5419999999999 1270.878 1031.726 1327.289 1179.3719999999998 1440 1171.249" fill="#383b54"></path>
    </g>
    <defs>
        <mask id="SvgjsMask1010">
            <rect width="1440" height="560" fill="#ffffff"></rect>
        </mask>
    </defs>
</svg>
